<svg preserveAspectRatio="none" width="100%" height="100%" overflow="visible" style="display: block;" viewBox="0 0 57 57.0101" fill="none" xmlns="http://www.w3.org/2000/svg">
<g id="icon-certificado">
<path d="M50.31 0H6.69C3 0 0 3 0 6.69V50.31C0 54 3 57 6.69 57H18.07C18.62 57 19.07 56.55 19.07 56C19.07 55.45 18.62 55 18.07 55H6.69C4.1 55 2 52.9 2 50.31V6.69C2 4.1 4.1 2 6.69 2H50.31C52.9 2 55 4.1 55 6.69V50.31C55 52.9 52.9 55 50.31 55H38.93C38.38 55 37.93 55.45 37.93 56C37.93 56.55 38.38 57 38.93 57H50.31C54 57 57 54 57 50.31V6.69C57 3 54 0 50.31 0Z" fill="#2A39D0"/>
<path d="M18.07 5.68993H12.38C11.83 5.68993 11.38 6.13993 11.38 6.68993C11.38 9.27993 9.28 11.3799 6.69 11.3799C6.14 11.3799 5.69 11.8299 5.69 12.3799V35.1399C5.69 35.6899 6.14 36.1399 6.69 36.1399C9.28 36.1399 11.38 38.2399 11.38 40.8299C11.38 41.3799 11.83 41.8299 12.38 41.8299H18.07C18.62 41.8299 19.07 41.3799 19.07 40.8299C19.07 40.2799 18.62 39.8299 18.07 39.8299H13.31C12.87 36.9399 10.58 34.6499 7.69 34.2099V13.2999C10.58 12.8599 12.87 10.5699 13.31 7.67993H18.07C18.62 7.67993 19.07 7.22993 19.07 6.67993C19.07 6.12993 18.62 5.67993 18.07 5.67993V5.68993Z" fill="#2A39D0"/>
<path d="M43.7 39.8299H38.94C38.39 39.8299 37.94 40.2799 37.94 40.8299C37.94 41.3799 38.39 41.8299 38.94 41.8299H44.63C45.18 41.8299 45.63 41.3799 45.63 40.8299C45.63 38.2399 47.73 36.1399 50.32 36.1399C50.87 36.1399 51.32 35.6899 51.32 35.1399V12.3799C51.32 11.8299 50.87 11.3799 50.32 11.3799C47.73 11.3799 45.63 9.27994 45.63 6.68994C45.63 6.13994 45.18 5.68994 44.63 5.68994H38.94C38.39 5.68994 37.94 6.13994 37.94 6.68994C37.94 7.23994 38.39 7.68994 38.94 7.68994H43.7C44.14 10.5799 46.43 12.8699 49.32 13.3099V34.2199C46.43 34.6599 44.14 36.9499 43.7 39.8399V39.8299Z" fill="#2A39D0"/>
<path d="M15.17 16.13V18.03C15.17 19.63 16.47 20.93 18.07 20.93H38.93C40.53 20.93 41.83 19.63 41.83 18.03V16.13C41.83 14.53 40.53 13.23 38.93 13.23H18.07C16.47 13.23 15.17 14.53 15.17 16.13ZM39.83 16.13V18.03C39.83 18.52 39.43 18.93 38.93 18.93H18.07C17.58 18.93 17.17 18.53 17.17 18.03V16.13C17.17 15.64 17.57 15.23 18.07 15.23H38.93C39.42 15.23 39.83 15.63 39.83 16.13Z" fill="#2A39D0"/>
<path d="M37.03 26.53H19.96C19.41 26.53 18.96 26.98 18.96 27.53C18.96 28.08 19.41 28.53 19.96 28.53H37.03C37.58 28.53 38.03 28.08 38.03 27.53C38.03 26.98 37.58 26.53 37.03 26.53Z" fill="#2A39D0"/>
<path d="M35.14 36.1399C35.69 36.1399 36.14 35.6899 36.14 35.1399C36.14 34.5899 35.69 34.1399 35.14 34.1399H21.86C21.31 34.1399 20.86 34.5899 20.86 35.1399C20.86 35.6899 21.31 36.1399 21.86 36.1399H35.14Z" fill="#2A39D0"/>
<path d="M28.5 39.8301C23.77 39.8301 19.91 43.6801 19.91 48.4201C19.91 53.1601 23.76 57.0101 28.5 57.0101C33.24 57.0101 37.09 53.1601 37.09 48.4201C37.09 43.6801 33.24 39.8301 28.5 39.8301ZM28.5 55.0001C24.87 55.0001 21.91 52.0401 21.91 48.4101C21.91 44.7801 24.86 41.8201 28.5 41.8201C32.14 41.8201 35.09 44.7701 35.09 48.4101C35.09 52.0501 32.14 55.0001 28.5 55.0001Z" fill="#2A39D0"/>
<path d="M27.56 49.3701L25.42 47.2301C25.03 46.8401 24.4 46.8401 24.01 47.2301C23.62 47.6201 23.62 48.2501 24.01 48.6401L26.85 51.4801C27.05 51.6801 27.3 51.7701 27.56 51.7701C27.82 51.7701 28.07 51.6701 28.27 51.4801L33.01 46.7401C33.4 46.3501 33.4 45.7201 33.01 45.3301C32.62 44.9401 31.99 44.9401 31.6 45.3301L27.56 49.3701Z" fill="#2A39D0"/>
</g>
</svg>
