<svg preserveAspectRatio="none" width="100%" height="100%" overflow="visible" style="display: block;" viewBox="0 0 57 57" fill="none" xmlns="http://www.w3.org/2000/svg">
<g id="icon-respaldo">
<path fill-rule="evenodd" clip-rule="evenodd" d="M46.8096 32.5C47.3596 32.5 47.8096 32.95 47.8096 33.5V39.2305C47.8093 39.7803 47.3594 40.2305 46.8096 40.2305H15.8701C15.3203 40.2305 14.8704 39.7803 14.8701 39.2305V33.5C14.8701 32.95 15.3201 32.5 15.8701 32.5H46.8096ZM16.8701 38.2197H45.8096V34.4902H16.8701V38.2197Z" fill="#2A39D0"/>
<path fill-rule="evenodd" clip-rule="evenodd" d="M42.8301 5.90039C43.1501 5.90041 43.4196 6.05029 43.5996 6.28027C43.6097 6.30023 43.6504 6.32031 43.6504 6.32031L49.8896 15.1504C49.9096 15.1704 49.9097 15.2103 49.9297 15.2402C49.9597 15.3002 49.9898 15.35 50.0098 15.4199C50.0298 15.4899 50.0498 15.5501 50.0498 15.6201C50.0499 15.65 50.0703 15.6799 50.0703 15.7197C50.0703 19.7097 46.8201 22.9599 42.8301 22.96C38.8401 22.96 35.5898 19.7097 35.5898 15.7197C35.5899 15.6898 35.6103 15.65 35.6104 15.6201C35.6204 15.5501 35.6304 15.4899 35.6504 15.4199L35.7705 15.1504L40.8896 7.90039H32.3604V27.1396H36.0498C36.5997 27.1396 37.0497 27.5898 37.0498 28.1396C37.0498 28.6896 36.5998 29.1396 36.0498 29.1396H26.6699C26.12 29.1396 25.6699 28.6896 25.6699 28.1396C25.6701 27.5898 26.1201 27.1397 26.6699 27.1396H30.3604V7.91016H21.8301L26.9502 15.1602C26.97 15.1802 26.9703 15.2201 26.9902 15.25C27.0202 15.3099 27.0503 15.3598 27.0703 15.4297C27.0903 15.4997 27.1103 15.5599 27.1104 15.6299C27.1104 15.6598 27.1297 15.6897 27.1299 15.7295C27.1299 19.7195 23.8796 22.9697 19.8896 22.9697C15.8998 22.9695 12.6504 19.7194 12.6504 15.7295C12.6506 15.6995 12.6699 15.6597 12.6699 15.6299C12.6799 15.5599 12.69 15.4997 12.71 15.4297L12.7305 15.4199C12.7504 15.3601 12.7797 15.3 12.8096 15.2402C12.8284 15.2119 12.8475 15.1565 12.8496 15.1504L19.0898 6.32031C19.0998 6.30046 19.1294 6.29983 19.1396 6.28027C19.3296 6.05027 19.6002 5.90039 19.9102 5.90039H42.8301ZM14.7402 16.7197C15.2102 19.1297 17.3399 20.9599 19.8799 20.96C22.4299 20.96 24.5505 19.1297 25.0205 16.7197H14.7402ZM37.6602 16.7197C38.1301 19.1297 40.2599 20.9599 42.7998 20.96C45.3498 20.96 47.4704 19.1297 47.9404 16.7197H37.6602ZM19.8701 8.62988L15.5703 14.7197H24.1797L19.8799 8.62988H19.8701ZM38.4902 14.7197H47.0898L42.79 8.62988L38.4902 14.7197Z" fill="#2A39D0"/>
<path fill-rule="evenodd" clip-rule="evenodd" d="M52.6201 0C55.03 6.41147e-05 56.9999 1.95998 57 4.37988V52.6201C56.9999 55.03 55.04 56.9999 52.6201 57H6.67969C3.12983 56.9998 0.219525 54.2099 0.0195312 50.71C0.0195185 50.6701 0.000154719 50.6402 0 50.6104V6.67969C0.000169736 2.99993 2.99993 0.000169733 6.67969 0H52.6201ZM6.67969 45.9404C4.14992 45.9406 2.09966 47.96 2.01953 50.4697C2.09953 52.9796 4.14983 54.9998 6.67969 55H52.6201V55.0098C53.9301 55.0097 55 53.9398 55 52.6299V51.6201H6.67969C6.12987 51.6199 5.67975 51.17 5.67969 50.6201C5.67969 50.0702 6.12983 49.6203 6.67969 49.6201H55V45.9404H6.67969ZM5.67969 2.12012C3.57995 2.58022 2.00015 4.43994 2 6.67969V45.8496C2.97991 44.8798 4.25989 44.2198 5.67969 44.0098V2.12012ZM7.67969 43.9297H55V4.37988C54.9999 3.06998 53.93 2.00006 52.6201 2H7.67969V43.9297Z" fill="#2A39D0"/>
</g>
</svg>
