<svg preserveAspectRatio="none" width="100%" height="100%" overflow="visible" style="display: block;" viewBox="0 0 80 80" fill="none" xmlns="http://www.w3.org/2000/svg">
<g id="circle">
<rect width="80" height="80" rx="40" fill="var(--fill-0, #2A39D0)"/>
<g id="icon">
<path d="M43.5806 48.3808C44.1706 48.8408 44.9206 49.0308 45.7006 48.9308C46.4806 48.8308 47.2006 48.4308 47.6606 47.8308C47.6606 47.8308 55.3906 37.7008 55.4406 37.6308C55.8906 37.0408 56.0906 36.2608 55.9806 35.4808C55.8806 34.7108 55.4806 34.0008 54.8906 33.5508C53.9206 32.8108 52.5806 32.7708 51.5506 33.4408L51.3706 33.5608L38.8206 23.9908L38.8906 23.7908C39.2606 22.6108 38.8606 21.3308 37.9006 20.6008C36.6206 19.6308 34.8006 19.8808 33.8406 21.1508L26.0606 31.3508C25.5906 31.9608 25.3906 32.7208 25.4906 33.4908C25.5906 34.2608 25.9906 34.9508 26.6006 35.4208C27.5706 36.1608 28.8806 36.2008 29.9406 35.5308L30.1206 35.4208L34.0006 38.3808L33.7506 38.6308C25.6373 46.6908 21.5806 50.7208 21.5806 50.7208C20.4906 51.8108 19.9206 53.3408 20.0206 54.9208C20.1206 56.5008 20.8906 57.9508 22.1206 58.8908C23.3506 59.8308 24.9406 60.1808 26.5006 59.8608C28.0506 59.5408 29.3806 58.5908 30.1306 57.2508L38.7806 42.0208L42.6606 44.9808L42.5906 45.1908C42.2106 46.3508 42.6106 47.6308 43.5806 48.3808ZM52.0406 35.0308C52.4906 34.4308 53.3506 34.3108 53.9606 34.7708C54.2506 34.9808 54.4306 35.3108 54.4906 35.6808C54.5406 36.0508 54.4506 36.4208 54.2306 36.7108L46.4506 46.9108C46.1806 47.2608 45.7706 47.4508 45.3506 47.4508C45.0606 47.4508 44.7706 47.3608 44.5206 47.1708C44.2206 46.9408 44.0306 46.6108 43.9906 46.2408C43.9406 45.8808 44.0406 45.5208 44.2606 45.2308L52.0406 35.0308ZM29.4406 33.9408C29.1706 34.2908 28.7606 34.4708 28.3506 34.4708C28.0606 34.4708 27.7606 34.3808 27.5106 34.1908C27.2206 33.9708 27.0406 33.6508 26.9906 33.2808C26.9406 32.9208 27.0406 32.5608 27.2606 32.2708L35.0406 22.0708C35.4906 21.4708 36.3506 21.3508 36.9606 21.8108C37.5606 22.2708 37.6806 23.1408 37.2206 23.7408L29.4306 33.9408H29.4406ZM35.2906 45.0608C35.2906 45.0608 28.8306 56.4508 28.8006 56.5008C28.2606 57.4608 27.3106 58.1408 26.2006 58.3708C25.9306 58.4308 25.6606 58.4508 25.3906 58.4508C24.5406 58.4508 23.7206 58.1808 23.0406 57.6708C22.1606 57.0108 21.6206 55.9808 21.5406 54.8508C21.4606 53.7008 21.8706 52.5908 22.6606 51.8008L32.1606 42.3308L35.4306 44.8208L35.3006 45.0508L35.2906 45.0608ZM36.1806 43.5008L33.2506 41.2608L35.2106 39.3108L37.5506 41.0908L36.1806 43.5108V43.5008ZM31.1206 34.2508L37.9806 25.2708L50.3606 34.7308L43.5006 43.7108L31.1206 34.2508Z" fill="var(--fill-0, #E2E5EF)"/>
<path d="M25.2806 55.6408C25.4806 55.6108 25.6606 55.5108 25.7906 55.3508C25.9106 55.1908 25.9706 54.9908 25.9406 54.7808C25.9106 54.5708 25.8106 54.4008 25.6506 54.2708C25.3106 54.0108 24.8306 54.0808 24.5806 54.4108C24.3306 54.7508 24.3906 55.2308 24.7206 55.4808C24.8806 55.6008 25.0806 55.6608 25.2906 55.6308L25.2806 55.6408Z" fill="var(--fill-0, #E2E5EF)"/>
<path d="M37.8006 31.2808C37.6706 31.1808 37.5006 31.1208 37.3406 31.1208C37.3106 31.1208 37.2706 31.1208 37.2406 31.1208C37.0406 31.1508 36.8606 31.2508 36.7406 31.4108C36.6206 31.5708 36.5606 31.7708 36.5906 31.9808C36.6206 32.1808 36.7206 32.3608 36.8806 32.4908C36.8806 32.4908 43.6106 37.6308 43.6806 37.6808C43.8306 37.8008 44.0406 37.8508 44.2406 37.8308C44.4506 37.8008 44.6306 37.7008 44.7506 37.5408C44.8706 37.3808 44.9306 37.1808 44.9006 36.9708C44.8706 36.7708 44.7706 36.5908 44.6106 36.4608L37.8106 31.2708L37.8006 31.2808Z" fill="var(--fill-0, #E2E5EF)"/>
<path d="M44.2606 54.2008C42.6606 54.2008 41.3606 55.5008 41.3606 57.1008V58.4708H39.9906C39.5706 58.4708 39.2306 58.8108 39.2306 59.2308C39.2306 59.6508 39.5706 59.9908 39.9906 59.9908H59.2306C59.6506 59.9908 59.9906 59.6508 59.9906 59.2308C59.9906 58.8108 59.6506 58.4708 59.2306 58.4708H57.8606V57.1008C57.8606 55.5008 56.5606 54.2008 54.9606 54.2008H44.2606ZM56.3306 58.4708H42.8906V57.1008C42.8906 56.3408 43.5106 55.7308 44.2606 55.7308H54.9506C55.7106 55.7308 56.3206 56.3508 56.3206 57.1008V58.4708H56.3306Z" fill="var(--fill-0, #E2E5EF)"/>
</g>
</g>
</svg>
