<svg preserveAspectRatio="none" width="100%" height="100%" overflow="visible" style="display: block;" viewBox="0 0 80 80" fill="none" xmlns="http://www.w3.org/2000/svg">
<g id="circle">
<rect width="80" height="80" rx="40" fill="var(--fill-0, #2A39D0)"/>
<path id="icon" d="M59.97 31.795C59.91 27.515 56.4 24.055 52.11 24.055H49.61V22.815C49.61 21.265 48.35 20.005 46.8 20.005H33.15C31.66 20.005 30.43 21.175 30.36 22.675L30.34 23.185L29.41 22.265C29.11 21.965 28.6 21.965 28.3 22.265C27.99 22.575 27.99 23.065 28.3 23.375L28.98 24.055H24.81C24.38 24.055 24.02 24.405 24.02 24.845C24.02 25.285 24.37 25.635 24.81 25.635H28.98L28.3 26.315C28.15 26.465 28.07 26.665 28.07 26.865C28.07 27.065 28.15 27.275 28.3 27.425C28.6 27.725 29.12 27.725 29.41 27.425L30.35 26.495V28.895C30.35 30.445 31.61 31.705 33.16 31.705H46.81C48.36 31.705 49.62 30.445 49.62 28.895V25.635H52.12C55.59 25.635 58.41 28.455 58.41 31.925C58.41 35.395 55.59 38.215 52.12 38.215H50.98L51.66 37.535C51.97 37.225 51.97 36.735 51.66 36.425C51.36 36.125 50.85 36.125 50.55 36.425L49.62 37.345L49.6 36.835C49.53 35.335 48.3 34.165 46.81 34.165H33.16C31.61 34.165 30.35 35.425 30.35 36.975V38.215H27.85C23.51 38.215 19.99 41.745 19.99 46.075C19.99 50.405 23.52 53.935 27.85 53.935H28.99L28.31 54.615C28.16 54.765 28.08 54.965 28.08 55.165C28.08 55.365 28.16 55.575 28.31 55.725C28.61 56.025 29.13 56.025 29.42 55.725L30.36 54.785V57.185C30.36 58.735 31.62 59.995 33.17 59.995H46.82C48.37 59.995 49.63 58.735 49.63 57.185V53.925H53.27L52.59 54.605C52.44 54.755 52.36 54.955 52.36 55.165C52.36 55.375 52.44 55.575 52.59 55.715C52.91 56.035 53.57 55.845 53.7 55.715C54.5 54.905 55.8 53.565 55.91 53.405C55.97 53.245 55.97 53.025 55.9 52.835C55.81 52.715 54.5 51.365 53.71 50.555C53.41 50.255 52.91 50.255 52.6 50.555C52.45 50.705 52.37 50.905 52.37 51.115C52.37 51.325 52.45 51.525 52.6 51.675L53.28 52.355H49.64V51.115C49.64 49.565 48.38 48.305 46.83 48.305H33.18C31.69 48.305 30.46 49.475 30.39 50.975L30.37 51.485L29.44 50.565C29.13 50.255 28.64 50.255 28.33 50.565C28.02 50.875 28.02 51.365 28.33 51.675L29.01 52.355H27.87C24.4 52.355 21.58 49.535 21.58 46.065C21.58 42.595 24.4 39.775 27.87 39.775H30.37V43.035C30.37 44.585 31.63 45.845 33.18 45.845H46.83C48.38 45.845 49.64 44.585 49.64 43.035V40.635L50.58 41.565C50.88 41.865 51.39 41.865 51.69 41.565C52 41.255 52 40.765 51.69 40.455L51.01 39.775H52.15C56.49 39.775 60.01 36.245 60.01 31.915V31.795H59.97ZM48.03 28.885C48.03 29.565 47.47 30.125 46.79 30.125H33.14C32.46 30.125 31.9 29.575 31.9 28.885V22.815C31.9 22.135 32.46 21.575 33.14 21.575H46.79C47.47 21.575 48.03 22.125 48.03 22.815V28.885ZM31.91 51.125C31.91 50.445 32.47 49.885 33.15 49.885H46.8C47.48 49.885 48.04 50.435 48.04 51.125V57.195C48.04 57.875 47.48 58.435 46.8 58.435H33.15C32.47 58.435 31.91 57.885 31.91 57.195V51.125ZM48.03 43.035C48.03 43.715 47.47 44.275 46.79 44.275H33.14C32.46 44.275 31.9 43.725 31.9 43.035V36.965C31.9 36.285 32.46 35.725 33.14 35.725H46.79C47.47 35.725 48.03 36.275 48.03 36.965V43.035Z" fill="var(--fill-0, #E2E5EF)"/>
</g>
</svg>
