<svg preserveAspectRatio="none" width="100%" height="100%" overflow="visible" style="display: block;" viewBox="0 0 13.995 14" fill="none" xmlns="http://www.w3.org/2000/svg">
<g id="Chceck icon">
<path d="M6.9975 14C5.2075 14 3.4075 13.32 2.0475 11.95C-0.6825 9.22 -0.6825 4.78 2.0475 2.05C3.3675 0.73 5.1275 0 6.9975 0C8.8675 0 10.6275 0.73 11.9475 2.05C14.6775 4.78 14.6775 9.22 11.9475 11.95C10.5775 13.32 8.7875 14 6.9975 14ZM2.8375 2.84C0.5475 5.13 0.5475 8.87 2.8375 11.16C5.1275 13.45 8.8675 13.45 11.1575 11.16C13.4475 8.87 13.4475 5.13 11.1575 2.84C10.0475 1.73 8.5675 1.12 6.9975 1.12C5.4275 1.12 3.9475 1.73 2.8375 2.84Z" fill="var(--fill-0, #2A39D0)"/>
<path d="M5.7075 9.49C5.5675 9.49 5.4275 9.44 5.3175 9.33L3.7275 7.76C3.5075 7.54 3.5075 7.19 3.7275 6.97C3.9475 6.75 4.2975 6.75 4.5175 6.97L5.7275 8.17L9.4975 4.69C9.7275 4.48 10.0775 4.49 10.2875 4.72C10.4975 4.95 10.4875 5.3 10.2575 5.51L6.0875 9.35C5.9775 9.45 5.8475 9.5 5.7075 9.5V9.49Z" fill="var(--fill-0, #2A39D0)"/>
</g>
</svg>
