<svg preserveAspectRatio="none" width="100%" height="100%" overflow="visible" style="display: block;" viewBox="0 0 57 57.01" fill="none" xmlns="http://www.w3.org/2000/svg">
<g id="icon-valicacion">
<path d="M33.29 55H6.68C4.1 55 2 52.9 2 50.32V7.68H27.94C28.78 7.68 29.6 8.02 30.2 8.62L31.58 10C32.56 10.98 33.86 11.52 35.25 11.52H49.33V30.05C49.33 30.6 49.78 31.05 50.33 31.05C50.88 31.05 51.33 30.6 51.33 30.05V6.68C51.33 3 48.33 0 44.65 0H6.68C3 0 0 3 0 6.68V50.33C0 54.01 3 57.01 6.68 57.01H33.29C33.84 57.01 34.29 56.56 34.29 56.01C34.29 55.46 33.84 55.01 33.29 55.01V55ZM6.68 2H44.65C47.23 2 49.33 4.1 49.33 6.68V9.52H35.25C34.4 9.52 33.6 9.19 32.99 8.59L31.61 7.21C30.63 6.23 29.33 5.69 27.94 5.69H2.11C2.57 3.59 4.44 2.01 6.67 2.01L6.68 2Z" fill="#2A39D0"/>
<path d="M21.04 18.03C21.04 17.48 20.59 17.03 20.04 17.03H16.26C13.62 17.03 11.48 19.18 11.48 21.82V25.6C11.48 26.15 11.93 26.6 12.48 26.6C13.03 26.6 13.48 26.15 13.48 25.6V21.82C13.48 20.28 14.73 19.03 16.26 19.03H20.04C20.59 19.03 21.04 18.58 21.04 18.03Z" fill="#2A39D0"/>
<path d="M12.48 35.96C11.93 35.96 11.48 36.41 11.48 36.96V40.74C11.48 43.38 13.63 45.53 16.26 45.53H20.04C20.59 45.53 21.04 45.08 21.04 44.53C21.04 43.98 20.59 43.53 20.04 43.53H16.26C14.72 43.53 13.48 42.28 13.48 40.74V36.96C13.48 36.41 13.03 35.96 12.48 35.96Z" fill="#2A39D0"/>
<path d="M37.97 21.82V25.6C37.97 26.15 38.42 26.6 38.97 26.6C39.52 26.6 39.97 26.15 39.97 25.6V21.82C39.97 19.18 37.82 17.03 35.19 17.03H31.4C30.85 17.03 30.4 17.48 30.4 18.03C30.4 18.58 30.85 19.03 31.4 19.03H35.19C36.73 19.03 37.97 20.28 37.97 21.82Z" fill="#2A39D0"/>
<path d="M29.39 32.4201C30.01 31.6701 30.41 30.7301 30.47 29.6901C30.76 29.5901 31.03 29.4401 31.28 29.2501C31.99 28.7001 32.39 27.8701 32.39 26.9701V25.6001C32.39 22.9601 30.24 20.8201 27.61 20.8201H22.88C21.82 20.8201 20.96 21.6601 20.93 22.7101C19.88 22.7401 19.04 23.6001 19.04 24.6601V26.3501C19.04 27.3601 19.56 28.2801 20.42 28.8101C20.58 28.9101 20.76 28.9801 20.93 29.0401V29.3901C20.93 30.5501 21.36 31.5901 22.04 32.4201C19.22 33.2001 17.14 35.7801 17.14 38.8501V40.7401C17.14 41.2901 17.59 41.7401 18.14 41.7401H33.28C33.83 41.7401 34.28 41.2901 34.28 40.7401V38.8501C34.28 35.7801 32.2 33.2001 29.38 32.4201H29.39ZM22.94 29.0201C23.04 28.9801 23.15 28.9601 23.24 28.9101L23.95 28.5501L28.48 29.6801C28.33 31.0701 27.16 32.1601 25.73 32.1601C24.19 32.1601 22.94 30.9101 22.94 29.3801V29.0201ZM21.94 24.7101C22.49 24.7101 22.94 24.2601 22.94 23.7101L22.89 22.8201H27.62C29.16 22.8201 30.4 24.0701 30.4 25.6001V26.9701C30.4 27.2501 30.28 27.5001 30.06 27.6701C29.84 27.8401 29.56 27.9001 29.3 27.8301L24.08 26.5201C24 26.5001 23.92 26.4901 23.84 26.4901C23.68 26.4901 23.53 26.5301 23.39 26.6001L22.35 27.1301C22.21 27.2001 22.08 27.2201 21.96 27.2201C21.75 27.2201 21.58 27.1501 21.5 27.1001C21.37 27.0201 21.08 26.7901 21.08 26.3401L21.03 24.7101H21.98H21.94ZM32.29 39.7401H19.15V38.8501C19.15 36.2701 21.25 34.1701 23.83 34.1701H24.72V36.9601C24.72 37.5101 25.17 37.9601 25.72 37.9601C26.27 37.9601 26.72 37.5101 26.72 36.9601V34.1701H27.61C30.19 34.1701 32.29 36.2701 32.29 38.8501V39.7401Z" fill="#2A39D0"/>
<path d="M46.42 35.8301C40.58 35.8301 35.84 40.5801 35.84 46.4101C35.84 52.2401 40.59 56.9901 46.42 56.9901C52.25 56.9901 57 52.2401 57 46.4101C57 40.5801 52.25 35.8301 46.42 35.8301ZM46.42 55.0001C41.69 55.0001 37.84 51.1501 37.84 46.4201C37.84 41.6901 41.69 37.8401 46.42 37.8401C51.15 37.8401 55 41.6901 55 46.4201C55 51.1501 51.15 55.0001 46.42 55.0001Z" fill="#2A39D0"/>
<path d="M50.44 42.8699L45.47 47.8399L42.39 44.7599C42 44.3699 41.37 44.3699 40.98 44.7599C40.59 45.1499 40.59 45.7799 40.98 46.1699L44.76 49.9599C44.95 50.1499 45.2 50.2499 45.47 50.2499C45.74 50.2499 45.99 50.1399 46.18 49.9599L51.86 44.2799C52.25 43.8899 52.25 43.2599 51.86 42.8699C51.47 42.4799 50.84 42.4799 50.45 42.8699H50.44Z" fill="#2A39D0"/>
<path d="M37.95 7.67993H38.97C39.52 7.67993 39.97 7.22993 39.97 6.67993C39.97 6.12993 39.52 5.67993 38.97 5.67993H37.95C37.4 5.67993 36.95 6.12993 36.95 6.67993C36.95 7.22993 37.4 7.67993 37.95 7.67993Z" fill="#2A39D0"/>
<path d="M43.58 7.67993H44.6C45.15 7.67993 45.6 7.22993 45.6 6.67993C45.6 6.12993 45.15 5.67993 44.6 5.67993H43.58C43.03 5.67993 42.58 6.12993 42.58 6.67993C42.58 7.22993 43.03 7.67993 43.58 7.67993Z" fill="#2A39D0"/>
</g>
</svg>
