<svg preserveAspectRatio="none" width="100%" height="100%" overflow="visible" style="display: block;" viewBox="0 0 57 57" fill="none" xmlns="http://www.w3.org/2000/svg">
<g id="icon-trazabilidad">
<path d="M31.5898 45.3301C31.9798 44.9401 32.61 44.9402 33 45.3301C33.39 45.7201 33.39 46.3502 33 46.7402L28.2607 51.4805C28.0607 51.6705 27.8098 51.7705 27.5498 51.7705C27.29 51.7704 27.0397 51.6804 26.8398 51.4805L24 48.6396C23.6105 48.2497 23.6104 47.6204 24 47.2305C24.39 46.8405 25.0202 46.8405 25.4102 47.2305L27.5498 49.3701L31.5898 45.3301Z" fill="#2A39D0"/>
<path d="M35.2598 30.4902C35.8098 30.4902 36.2598 30.9402 36.2598 31.4902C36.2596 32.0401 35.8097 32.4902 35.2598 32.4902H21.9502C21.4003 32.4902 20.9503 32.0401 20.9502 31.4902C20.9502 30.9402 21.4002 30.4902 21.9502 30.4902H35.2598Z" fill="#2A39D0"/>
<path d="M35.2598 26.3896C35.8097 26.3896 36.2596 26.8398 36.2598 27.3896C36.2598 27.9396 35.8098 28.3896 35.2598 28.3896H21.9502C21.4002 28.3896 20.9502 27.9396 20.9502 27.3896C20.9503 26.8398 21.4003 26.3896 21.9502 26.3896H35.2598Z" fill="#2A39D0"/>
<path d="M35.2598 22.29C35.8098 22.29 36.2598 22.74 36.2598 23.29C36.2598 23.84 35.8098 24.29 35.2598 24.29H21.9502C21.4002 24.29 20.9502 23.84 20.9502 23.29C20.9502 22.74 21.4002 22.29 21.9502 22.29H35.2598Z" fill="#2A39D0"/>
<path d="M27.6104 17.9004C28.1603 17.9005 28.6104 18.3504 28.6104 18.9004C28.6101 19.4501 28.1601 19.9003 27.6104 19.9004H21.9502C21.4004 19.9004 20.9505 19.4502 20.9502 18.9004C20.9502 18.3504 21.4002 17.9004 21.9502 17.9004H27.6104Z" fill="#2A39D0"/>
<path fill-rule="evenodd" clip-rule="evenodd" d="M21.5801 0C25.4601 0 29.2098 1.51045 32.0098 4.19043C33.7997 2.73046 36.0302 1.92972 38.3701 1.92969C43.93 1.92969 48.4501 6.44987 48.4502 12.0098C48.4502 12.6998 48.3705 13.4001 48.2305 14.0801C53.3004 15.3302 57 19.9501 57 25.25C57 31.5999 51.8304 36.7694 45.4805 36.7695H29.5V39.8896C33.43 40.3496 36.5605 43.4702 37.0205 47.4102H47.5205C47.9801 45.252 49.897 43.6229 52.1943 43.6201C54.8325 43.6223 56.9805 45.7715 56.9805 48.4102C56.9804 51.05 54.8303 53.2001 52.1904 53.2002C49.9004 53.2002 47.9698 51.5701 47.5098 49.4102H37.0098C36.5197 53.6801 32.8802 57 28.4902 57C24.1003 57 20.4708 53.6701 19.9707 49.4102H9.4707C9.01068 51.5701 7.09002 53.2002 4.79004 53.2002C2.15018 53.2001 8.49071e-05 51.05 0 48.4102C0 45.7702 2.15013 43.6202 4.79004 43.6201C7.08004 43.6201 9.0107 45.2502 9.4707 47.4102H19.9707C20.4307 43.4802 23.5502 40.3496 27.4902 39.8896V36.7695H11.7305C5.38047 36.7695 0.209961 31.6 0.209961 25.25C0.209961 20.9101 2.66017 16.9503 6.5 14.9902C6.55 6.72029 13.2902 8.96746e-05 21.5801 0ZM28.4902 41.8203C24.8502 41.8203 21.9004 44.7702 21.9004 48.4102C21.9005 52.0501 24.8603 55 28.4902 55C32.1302 55 35.08 52.0501 35.0801 48.4102C35.0801 44.7702 32.1302 41.8203 28.4902 41.8203ZM4.78027 45.6299C3.2403 45.6299 1.99028 46.88 1.99023 48.4199C1.99023 49.9599 3.24027 51.21 4.78027 51.21C6.32026 51.2099 7.57031 49.9599 7.57031 48.4199C7.57027 46.88 6.32023 45.6299 4.78027 45.6299ZM52.2002 45.6299C50.6602 45.6299 49.4102 46.88 49.4102 48.4199C49.4102 49.9599 50.6602 51.2099 52.2002 51.21C53.7402 51.21 54.9902 49.9599 54.9902 48.4199C54.9902 46.88 53.7402 45.6299 52.2002 45.6299ZM21.5801 2.00977C14.3702 2.00986 8.50008 7.87997 8.5 15.0898C8.5 15.2598 8.50976 15.4199 8.50977 15.5898C8.51977 15.9998 8.29016 16.37 7.91016 16.54C4.45021 18.0501 2.20996 21.47 2.20996 25.25H2.2002C2.2002 30.5 6.4707 34.7695 11.7207 34.7695H15.2002V16.4004C15.2002 13.5104 17.5504 11.1602 20.4404 11.1602H32.8506C34.2505 11.1602 35.5706 11.7103 36.5605 12.7002L40.4502 16.5898C41.4402 17.5798 41.9902 18.8999 41.9902 20.2998V34.7695H45.4707C50.7205 34.7693 54.9902 30.4998 54.9902 25.25C54.9902 20.55 51.4898 16.5098 46.8398 15.8398C46.55 15.7997 46.2898 15.6298 46.1299 15.3799C45.97 15.1299 45.9403 14.8199 46.0303 14.54C46.3003 13.72 46.4404 12.8698 46.4404 12.0098C46.4403 7.54991 42.8102 3.92975 38.3604 3.92969C36.2104 3.92969 34.1802 4.76027 32.6602 6.28027C32.4603 6.47007 32.2104 6.57021 31.9307 6.57031C31.6608 6.57031 31.4007 6.44986 31.2207 6.25C28.7507 3.56 25.2401 2.00977 21.5801 2.00977ZM20.4502 13.1602C18.6702 13.1602 17.21 14.6104 17.21 16.4004V34.7695H40V20.2998C40 20.2498 39.9902 20.1699 39.9902 20.1699H36.6904C34.6404 20.1699 32.9805 18.5 32.9805 16.46V13.1699C32.9414 13.1699 32.8639 13.1606 32.8604 13.1602H20.4502ZM34.9707 16.4502C34.9708 17.3901 35.7407 18.1602 36.6807 18.1602H39.1807C39.1307 18.1002 39.09 18.0402 39.04 17.9902L35.1504 14.0996C35.1004 14.0497 35.0404 14.0099 34.9805 13.96H34.9707V16.4502Z" fill="#2A39D0"/>
</g>
</svg>
