<svg preserveAspectRatio="none" width="100%" height="100%" overflow="visible" style="display: block;" viewBox="0 0 20 20" fill="none" xmlns="http://www.w3.org/2000/svg">
<g id="Chceck icon">
<path d="M10 20C7.44194 20 4.8696 19.0286 2.92605 17.0714C-0.975348 13.1714 -0.975348 6.82857 2.92605 2.92857C4.81243 1.04286 7.32762 0 10 0C12.6724 0 15.1876 1.04286 17.074 2.92857C20.9753 6.82857 20.9753 13.1714 17.074 17.0714C15.1161 19.0286 12.5581 20 10 20ZM4.05502 4.05714C0.782422 7.32857 0.782422 12.6714 4.05502 15.9429C7.32762 19.2143 12.6724 19.2143 15.945 15.9429C19.2176 12.6714 19.2176 7.32857 15.945 4.05714C14.3587 2.47143 12.2437 1.6 10 1.6C7.75634 1.6 5.6413 2.47143 4.05502 4.05714Z" fill="#C7CCFA"/>
<path d="M8.15648 13.5571C7.95641 13.5571 7.75634 13.4857 7.59914 13.3286L5.3269 11.0857C5.0125 10.7714 5.0125 10.2714 5.3269 9.95714C5.6413 9.64286 6.14148 9.64286 6.45588 9.95714L8.18507 11.6714L13.5727 6.7C13.9014 6.4 14.4016 6.41429 14.7017 6.74286C15.0018 7.07143 14.9875 7.57143 14.6588 7.87143L8.69954 13.3571C8.54234 13.5 8.35656 13.5714 8.15648 13.5714V13.5571Z" fill="#C7CCFA"/>
</g>
</svg>
