<svg preserveAspectRatio="none" width="100%" height="100%" overflow="visible" style="display: block;" viewBox="0 0 57 57" fill="none" xmlns="http://www.w3.org/2000/svg">
<g id="icon-plataforma">
<path d="M49.67 0H7.33C3.29 0 0 3.29 0 7.33V49.67C0 53.71 3.29 57 7.33 57H49.67C53.71 57 57 53.71 57 49.67V7.33C57 3.29 53.71 0 49.67 0ZM7.33 2H49.67C52.61 2 55 4.39 55 7.33V10.61H39.19C38.21 10.61 37.29 10.23 36.59 9.53L35.05 7.99C33.98 6.92 32.55 6.33 31.04 6.33H2.1C2.57 3.87 4.73 2 7.33 2ZM38.51 21.7C39.03 21.98 39.52 22.34 39.95 22.77L46.47 29.29C46.9 29.72 47.26 30.2 47.53 30.72H42.04C40.09 30.72 38.51 29.14 38.51 27.19V21.7ZM42.04 32.72H48.19C48.23 33.01 48.26 33.31 48.26 33.61V55H8.74V27.09C8.74 23.72 11.48 20.99 14.84 20.99H35.63C35.94 20.99 36.25 21.02 36.55 21.07C36.53 21.14 36.51 21.21 36.51 21.29V27.2C36.51 30.25 38.99 32.73 42.04 32.73V32.72ZM50.26 54.94V33.61C50.26 31.45 49.42 29.41 47.89 27.88L41.37 21.36C39.84 19.83 37.81 18.99 35.64 18.99H14.85C10.38 18.99 6.75 22.63 6.75 27.09V54.94C4.09 54.64 2.01 52.41 2.01 49.67V8.33H31.05C32.03 8.33 32.95 8.71 33.65 9.41L35.19 10.95C36.26 12.02 37.69 12.61 39.2 12.61H55.01V49.67C55.01 52.41 52.93 54.64 50.27 54.94H50.26Z" fill="var(--fill-0, #2A39D0)"/>
<path d="M42.2 8.33008H43.34C43.89 8.33008 44.34 7.88008 44.34 7.33008C44.34 6.78008 43.89 6.33008 43.34 6.33008H42.2C41.65 6.33008 41.2 6.78008 41.2 7.33008C41.2 7.88008 41.65 8.33008 42.2 8.33008Z" fill="var(--fill-0, #2A39D0)"/>
<path d="M48.48 8.33008H49.62C50.17 8.33008 50.62 7.88008 50.62 7.33008C50.62 6.78008 50.17 6.33008 49.62 6.33008H48.48C47.93 6.33008 47.48 6.78008 47.48 7.33008C47.48 7.88008 47.93 8.33008 48.48 8.33008Z" fill="var(--fill-0, #2A39D0)"/>
<path d="M15.62 32.73H26.83C27.38 32.73 27.83 32.28 27.83 31.73C27.83 31.18 27.38 30.73 26.83 30.73H15.62C15.07 30.73 14.62 31.18 14.62 31.73C14.62 32.28 15.07 32.73 15.62 32.73Z" fill="var(--fill-0, #2A39D0)"/>
<path d="M15.62 27.99H26.83C27.38 27.99 27.83 27.54 27.83 26.99C27.83 26.44 27.38 25.99 26.83 25.99H15.62C15.07 25.99 14.62 26.44 14.62 26.99C14.62 27.54 15.07 27.99 15.62 27.99Z" fill="var(--fill-0, #2A39D0)"/>
<path d="M14.62 36.47C14.62 37.02 15.07 37.47 15.62 37.47H41.45C42 37.47 42.45 37.02 42.45 36.47C42.45 35.92 42 35.47 41.45 35.47H15.62C15.07 35.47 14.62 35.92 14.62 36.47Z" fill="var(--fill-0, #2A39D0)"/>
<path d="M41.45 40.23H15.62C15.07 40.23 14.62 40.68 14.62 41.23C14.62 41.78 15.07 42.23 15.62 42.23H41.45C42 42.23 42.45 41.78 42.45 41.23C42.45 40.68 42 40.23 41.45 40.23Z" fill="var(--fill-0, #2A39D0)"/>
<path d="M41.45 49.21C41.03 49.21 40.54 49.24 40.05 49.27C38.36 49.37 36.62 49.48 34.73 48.3C32.36 46.82 31.05 47.93 30.19 48.66C29.69 49.08 29.39 49.29 29 49.31C28.75 49.21 28.32 48.31 28.08 47.83C27.46 46.55 26.69 44.97 25.04 44.97H25.02C21.32 45 20.46 50.31 20.42 50.54C20.34 51.08 20.71 51.59 21.25 51.68C21.3 51.68 21.35 51.69 21.41 51.69C21.89 51.69 22.32 51.34 22.4 50.85C22.4 50.81 23.06 46.99 25.04 46.97C25.44 46.97 25.93 47.97 26.29 48.71C26.87 49.91 27.54 51.27 28.93 51.31C30.11 51.31 30.91 50.68 31.49 50.19C32.26 49.54 32.55 49.29 33.68 50C36.11 51.52 38.37 51.38 40.18 51.27C40.61 51.24 41.03 51.22 41.43 51.22C41.43 51.22 41.44 51.22 41.45 51.22C42 51.22 42.45 50.77 42.45 50.22C42.45 49.67 42 49.22 41.45 49.22V49.21Z" fill="var(--fill-0, #2A39D0)"/>
</g>
</svg>
