<svg preserveAspectRatio="none" width="100%" height="100%" overflow="visible" style="display: block;" viewBox="0 0 25 25" fill="none" xmlns="http://www.w3.org/2000/svg">
<g id="icon">
<path d="M12.5 25C9.3 25 6.1 23.78 3.66 21.34C-1.22 16.47 -1.22 8.54 3.66 3.66C6.02 1.3 9.16 0 12.5 0C15.84 0 18.98 1.3 21.34 3.66C26.22 8.53 26.22 16.47 21.34 21.34C18.9 23.78 15.7 25 12.5 25ZM5.07 5.08C0.98 9.17 0.98 15.83 5.07 19.93C9.17 24.02 15.83 24.02 19.93 19.93C24.03 15.83 24.03 9.17 19.93 5.08C17.95 3.1 15.31 2 12.5 2C9.69 2 7.06 3.09 5.07 5.08Z" fill="#C8CCDD"/>
<path d="M12.5 16.71C12.28 16.71 12.06 16.64 11.88 16.5L6.11 11.98C5.68 11.64 5.6 11.01 5.94 10.58C6.28 10.15 6.91 10.07 7.34 10.41L12.5 14.45L17.66 10.41C18.09 10.07 18.72 10.15 19.06 10.58C19.4 11.01 19.32 11.64 18.89 11.98L13.12 16.5C12.94 16.64 12.72 16.71 12.5 16.71Z" fill="#C8CCDD"/>
</g>
</svg>
