<svg preserveAspectRatio="none" width="100%" height="100%" overflow="visible" style="display: block;" viewBox="0 0 80 80" fill="none" xmlns="http://www.w3.org/2000/svg">
<g id="circle">
<rect width="80" height="80" rx="40" fill="var(--fill-0, #2A39D0)"/>
<g id="Vector">
<path d="M26.835 19.995C25.295 19.995 24.045 21.245 24.045 22.785V57.215C24.045 58.745 25.295 60.005 26.835 60.005H53.165C54.705 60.005 55.955 58.755 55.955 57.215V22.785C55.955 21.255 54.705 19.995 53.165 19.995H26.835ZM53.155 58.475H26.835C26.135 58.475 25.565 57.905 25.565 57.205V22.785C25.565 22.085 26.135 21.515 26.835 21.515H53.165C53.865 21.515 54.435 22.085 54.435 22.785V46.325H35.265C34.885 46.325 34.505 46.455 34.205 46.675L31.505 48.695C31.055 49.035 30.795 49.545 30.795 50.115C30.795 50.685 31.055 51.195 31.505 51.535L34.205 53.565C34.505 53.795 34.885 53.915 35.265 53.915H54.425V57.205C54.425 57.905 53.855 58.475 53.155 58.475ZM54.425 52.395H49.865V47.845H54.425V52.405V52.395ZM35.115 52.355L32.415 50.335C32.325 50.265 32.315 50.175 32.315 50.135C32.315 50.095 32.325 49.995 32.415 49.935L35.265 47.855H48.345V52.395L35.115 52.365V52.355Z" fill="var(--fill-0, #E2E5EF)"/>
<path d="M30.885 29.615H49.115C49.535 29.615 49.875 29.275 49.875 28.855C49.875 28.435 49.535 28.095 49.115 28.095H30.885C30.465 28.095 30.125 28.435 30.125 28.855C30.125 29.275 30.465 29.615 30.885 29.615Z" fill="var(--fill-0, #E2E5EF)"/>
<path d="M30.885 35.695H49.115C49.535 35.695 49.875 35.355 49.875 34.935C49.875 34.515 49.535 34.175 49.115 34.175H30.885C30.465 34.175 30.125 34.515 30.125 34.935C30.125 35.355 30.465 35.695 30.885 35.695Z" fill="var(--fill-0, #E2E5EF)"/>
<path d="M41.005 41.765C41.425 41.765 41.765 41.425 41.765 41.005C41.765 40.585 41.425 40.245 41.005 40.245H30.885C30.465 40.245 30.125 40.585 30.125 41.005C30.125 41.425 30.465 41.765 30.885 41.765H41.015H41.005Z" fill="var(--fill-0, #E2E5EF)"/>
</g>
</g>
</svg>
