<svg preserveAspectRatio="none" width="100%" height="100%" overflow="visible" style="display: block;" viewBox="0 0 24 24" fill="none" xmlns="http://www.w3.org/2000/svg">
<g id="icon/system-icons/WarningCircle/fill">
<path id="Vector" d="M12 2C10.0222 2 8.08879 2.58649 6.4443 3.6853C4.79981 4.78412 3.51809 6.3459 2.76121 8.17316C2.00433 10.0004 1.8063 12.0111 2.19215 13.9509C2.578 15.8907 3.53041 17.6725 4.92894 19.0711C6.32746 20.4696 8.10929 21.422 10.0491 21.8078C11.9889 22.1937 13.9996 21.9957 15.8268 21.2388C17.6541 20.4819 19.2159 19.2002 20.3147 17.5557C21.4135 15.9112 22 13.9778 22 12C21.9972 9.34869 20.9427 6.80678 19.068 4.93202C17.1932 3.05727 14.6513 2.0028 12 2ZM11.2308 7.38461C11.2308 7.1806 11.3118 6.98494 11.4561 6.84069C11.6003 6.69643 11.796 6.61538 12 6.61538C12.204 6.61538 12.3997 6.69643 12.5439 6.84069C12.6882 6.98494 12.7692 7.1806 12.7692 7.38461V12.7692C12.7692 12.9732 12.6882 13.1689 12.5439 13.3132C12.3997 13.4574 12.204 13.5385 12 13.5385C11.796 13.5385 11.6003 13.4574 11.4561 13.3132C11.3118 13.1689 11.2308 12.9732 11.2308 12.7692V7.38461ZM12 17.3846C11.7718 17.3846 11.5487 17.3169 11.359 17.1902C11.1692 17.0634 11.0213 16.8832 10.934 16.6723C10.8467 16.4615 10.8238 16.2295 10.8683 16.0057C10.9128 15.7818 11.0227 15.5762 11.1841 15.4149C11.3455 15.2535 11.5511 15.1436 11.7749 15.0991C11.9987 15.0546 12.2307 15.0774 12.4416 15.1648C12.6524 15.2521 12.8326 15.4 12.9594 15.5897C13.0862 15.7795 13.1538 16.0026 13.1538 16.2308C13.1538 16.5368 13.0323 16.8303 12.8159 17.0467C12.5995 17.263 12.306 17.3846 12 17.3846Z" fill="var(--fill-0, #BC251D)"/>
</g>
</svg>
